<svg width="24" height="24" viewBox="0 0 24 24" fill="none" xmlns="http://www.w3.org/2000/svg">
<path d="M11.5 12.5H6.50001C6.35801 12.5 6.23934 12.452 6.14401 12.356C6.04867 12.26 6.00067 12.141 6.00001 11.999C5.99934 11.857 6.04734 11.7383 6.14401 11.643C6.24067 11.5477 6.35934 11.5 6.50001 11.5H11.5V6.50001C11.5 6.35801 11.548 6.23934 11.644 6.14401C11.74 6.04867 11.859 6.00067 12.001 6.00001C12.143 5.99934 12.2617 6.04734 12.357 6.14401C12.4523 6.24067 12.5 6.35934 12.5 6.50001V11.5H17.5C17.642 11.5 17.7607 11.548 17.856 11.644C17.9513 11.74 17.9993 11.859 18 12.001C18.0007 12.143 17.9527 12.2617 17.856 12.357C17.7593 12.4523 17.6407 12.5 17.5 12.5H12.5V17.5C12.5 17.642 12.452 17.7607 12.356 17.856C12.26 17.9513 12.141 17.9993 11.999 18C11.857 18.0007 11.7383 17.9527 11.643 17.856C11.5477 17.7593 11.5 17.6407 11.5 17.5V12.5Z" fill="black" fill-opacity="0.55"/>
</svg>
