<svg width="6" height="10" viewBox="0 0 6 10" fill="none" xmlns="http://www.w3.org/2000/svg">
<path fill-rule="evenodd" clip-rule="evenodd" d="M0.463703 9.23635C0.294979 9.06757 0.200195 8.8387 0.200195 8.60005C0.200195 8.3614 0.294979 8.13252 0.463703 7.96375L3.4274 5.00005L0.463703 2.03635C0.299761 1.86661 0.209046 1.63927 0.211096 1.40329C0.213147 1.16731 0.307799 0.94158 0.474666 0.774713C0.641534 0.607845 0.867265 0.513193 1.10324 0.511142C1.33922 0.509092 1.56656 0.599807 1.7363 0.763749L5.3363 4.36375C5.50503 4.53252 5.59981 4.7614 5.59981 5.00005C5.59981 5.2387 5.50503 5.46757 5.3363 5.63635L1.7363 9.23635C1.56753 9.40507 1.33865 9.49986 1.1 9.49986C0.861355 9.49986 0.632478 9.40507 0.463703 9.23635Z" fill="#18181B"/>
</svg>
