<svg width="6" height="10" viewBox="0 0 6 10" fill="none" xmlns="http://www.w3.org/2000/svg">
<path fill-rule="evenodd" clip-rule="evenodd" d="M5.43591 0.763752C5.60464 0.932527 5.69942 1.1614 5.69942 1.40005C5.69942 1.6387 5.60464 1.86758 5.43591 2.03635L2.47221 5.00005L5.43591 7.96375C5.59985 8.13349 5.69057 8.36083 5.68852 8.59681C5.68647 8.83279 5.59182 9.05852 5.42495 9.22539C5.25808 9.39225 5.03235 9.48691 4.79637 9.48896C4.5604 9.49101 4.33305 9.40029 4.16331 9.23635L0.563313 5.63635C0.394589 5.46758 0.299805 5.2387 0.299805 5.00005C0.299805 4.7614 0.394589 4.53253 0.563313 4.36375L4.16331 0.763752C4.33209 0.595028 4.56096 0.500244 4.79961 0.500244C5.03826 0.500244 5.26714 0.595028 5.43591 0.763752Z" fill="#18181B"/>
</svg>
